<svg width="480" height="209" viewBox="0 0 480 209" fill="none" xmlns="http://www.w3.org/2000/svg">
<path d="M217.031 164.903L217.208 166.618C217.465 169.087 214.985 170.875 211.667 170.608L40.7852 156.847C37.4675 156.58 34.571 154.36 34.3177 151.89L34.1389 150.176L217.031 164.903Z" fill="#00B2FF"/>
<path d="M25.9936 41.657C25.7315 38.7325 28.299 36.6168 31.7316 36.9338L208.599 53.2257C212.031 53.5425 215.031 56.1697 215.294 59.0955L224.872 165.182L35.5742 147.745L25.9936 41.657Z" fill="#00B2FF"/>
<path opacity="0.75" d="M219.688 162.046L210.674 62.5284C210.42 59.7558 207.578 57.2655 204.323 56.9655L36.6437 41.5263C33.3885 41.2253 30.955 43.2308 31.206 46.0022L40.2231 145.521L219.688 162.046Z" fill="white"/>
<path d="M38.341 44.6434L122.424 109.91C125.044 111.943 128.744 111.85 131.278 109.687L209.814 42.6605" stroke="#00B2FF" stroke-width="5"/>
<path fill-rule="evenodd" clip-rule="evenodd" d="M290.44 80.2195C290.051 80.2764 288.686 80.8163 288.084 81.1286C285.832 82.3032 283.758 84.0268 281.652 85.7298C271.294 94.1072 262.834 100.941 252.497 109.67C250.7 111.185 249.044 112.501 246.835 114.535C244.891 116.327 243.108 118.465 243.782 120.224C244.569 122.276 247.714 122.589 249.589 122.846C256.265 123.752 263.125 123.362 269.823 123.734C276.278 124.086 282.781 124.93 289.909 124.999C291.928 125.014 295.303 125.277 297.073 123.616C299.186 121.628 296.472 114.486 295.539 111.363C294.458 107.743 293.837 104.928 292.639 101.576C292.255 100.515 291.397 99.5499 291.125 98.4074C290.879 97.4155 291.506 95.4952 291.793 93.9447C292.353 90.8905 292.676 88.1534 292.863 85.1366C292.953 83.7706 293.211 79.8335 290.44 80.2195Z" fill="#00B2FF"/>
<path fill-rule="evenodd" clip-rule="evenodd" d="M290.44 80.2195C290.051 80.2764 288.686 80.8163 288.084 81.1286C285.832 82.3032 283.758 84.0268 281.652 85.7298C271.294 94.1072 262.834 100.941 252.497 109.67C250.7 111.185 249.044 112.501 246.835 114.535C244.891 116.327 243.108 118.465 243.782 120.224C244.569 122.276 247.714 122.589 249.589 122.846C256.265 123.752 263.125 123.362 269.823 123.734C276.278 124.086 282.781 124.93 289.909 124.999C291.928 125.014 295.303 125.277 297.073 123.616C299.186 121.628 296.472 114.486 295.539 111.363C294.458 107.743 293.837 104.928 292.639 101.576C292.255 100.515 291.397 99.5499 291.125 98.4074C290.879 97.4155 291.506 95.4952 291.793 93.9447C292.353 90.8905 292.676 88.1534 292.863 85.1366C292.953 83.7706 293.211 79.8335 290.44 80.2195Z" fill="#00B2FF"/>
<path opacity="0.42" fill-rule="evenodd" clip-rule="evenodd" d="M290.44 80.2195C290.051 80.2764 288.686 80.8163 288.084 81.1286C285.832 82.3032 283.758 84.0268 281.652 85.7298C271.294 94.1072 262.834 100.941 252.497 109.67C250.7 111.185 249.044 112.501 246.835 114.535C244.891 116.327 243.108 118.465 243.782 120.224C244.569 122.276 247.714 122.589 249.589 122.846C256.265 123.752 263.125 123.362 269.823 123.734C276.278 124.086 282.781 124.93 289.909 124.999C291.928 125.014 295.303 125.277 297.073 123.616C299.186 121.628 296.472 114.486 295.539 111.363C294.458 107.743 293.837 104.928 292.639 101.576C292.255 100.515 291.397 99.5499 291.125 98.4074C290.879 97.4155 291.506 95.4952 291.793 93.9447C292.353 90.8905 292.676 88.1534 292.863 85.1366C292.953 83.7706 293.211 79.8335 290.44 80.2195Z" fill="white"/>
<path fill-rule="evenodd" clip-rule="evenodd" d="M299.674 103.249C299.355 101.971 298.008 101.692 297.168 101.158C296.277 100.591 295.451 99.9192 294.451 99.3189C292.841 98.3325 290.47 96.5437 288.622 96.5766C287.856 96.5949 286.18 97.1975 285.161 97.526C281.406 98.7287 277.791 100.895 274.093 102.822C264.933 107.596 254.562 112.483 245.927 118.127C245.363 118.494 244.105 119.042 244.317 119.621C244.659 120.544 246.293 119.929 247.37 119.622C263.592 114.982 280.633 108.459 296.519 104.514C297.581 104.255 298.944 104.336 299.674 103.249Z" fill="#00B2FF"/>
<path fill-rule="evenodd" clip-rule="evenodd" d="M299.674 103.249C299.355 101.971 298.008 101.692 297.168 101.158C296.277 100.591 295.451 99.9192 294.451 99.3189C292.841 98.3325 290.47 96.5437 288.622 96.5766C287.856 96.5949 286.18 97.1975 285.161 97.526C281.406 98.7287 277.791 100.895 274.093 102.822C264.933 107.596 254.562 112.483 245.927 118.127C245.363 118.494 244.105 119.042 244.317 119.621C244.659 120.544 246.293 119.929 247.37 119.622C263.592 114.982 280.633 108.459 296.519 104.514C297.581 104.255 298.944 104.336 299.674 103.249Z" fill="#00B2FF"/>
<path d="M471.423 168.23C455.28 143.479 394.903 105.97 362.628 140.705C334.651 170.816 367.809 198.691 391.462 179.556C415.114 160.422 391.246 74.2567 306.41 99.1603" stroke="#003294" stroke-width="5" stroke-linecap="round" stroke-dasharray="11 11"/>
</svg>
