<svg width="61" height="62" viewBox="0 0 61 62" fill="none" xmlns="http://www.w3.org/2000/svg">
<path fill-rule="evenodd" clip-rule="evenodd" d="M31.9142 2.31821C32.6953 3.09926 32.6953 4.36559 31.9142 5.14664L25.8031 11.2577C25.4567 11.6042 25.0147 11.797 24.562 11.8361C25.7421 13.4687 26.3889 15.4422 26.3889 17.4824C26.3889 20.0388 25.3734 22.4905 23.5657 24.2981C21.7581 26.1058 19.3064 27.1213 16.75 27.1213C14.1936 27.1213 11.7419 26.1058 9.93428 24.2981C8.12663 22.4905 7.11111 20.0388 7.11111 17.4824C7.11111 14.926 8.12663 12.4743 9.93428 10.6667C11.7419 8.85906 14.1936 7.84353 16.75 7.84353C18.7902 7.84353 20.7637 8.49034 22.3964 9.6704C22.4355 9.2177 22.6282 8.77577 22.9747 8.42932L29.0858 2.31821C29.8668 1.53716 31.1332 1.53716 31.9142 2.31821ZM16.75 23.1213C18.2455 23.1213 19.6798 22.5272 20.7373 21.4697C21.7948 20.4122 22.3889 18.9779 22.3889 17.4824C22.3889 15.9869 21.7948 14.5526 20.7373 13.4951C19.6798 12.4376 18.2455 11.8435 16.75 11.8435C15.2545 11.8435 13.8202 12.4376 12.7627 13.4951C11.7052 14.5526 11.1111 15.9869 11.1111 17.4824C11.1111 18.9779 11.7052 20.4122 12.7627 21.4697C13.8202 22.5272 15.2545 23.1213 16.75 23.1213ZM43.5454 4.55559C45.353 2.74794 47.8047 1.73242 50.3611 1.73242C52.9175 1.73242 55.3692 2.74794 57.1768 4.55559C58.9845 6.36323 60 8.81492 60 11.3713C60 13.9277 58.9845 16.3794 57.1768 18.187C55.3692 19.9947 52.9175 21.0102 50.3611 21.0102C48.3209 21.0102 46.3474 20.3634 44.7148 19.1833C44.6757 19.636 44.4829 20.078 44.1364 20.4244L19.692 44.8689C19.3455 45.2153 18.9036 45.4081 18.4509 45.4472C19.631 47.0798 20.2778 49.0533 20.2778 51.0935C20.2778 53.6499 19.2623 56.1016 17.4546 57.9093C15.647 59.7169 13.1953 60.7324 10.6389 60.7324C8.0825 60.7324 5.63081 59.7169 3.82317 57.9093C2.01552 56.1016 1 53.6499 1 51.0935C1 48.5371 2.01552 46.0855 3.82317 44.2778C5.63081 42.4702 8.0825 41.4546 10.6389 41.4546C12.6791 41.4546 14.6526 42.1015 16.2852 43.2815C16.3243 42.8288 16.5171 42.3869 16.8636 42.0404L41.308 17.596C41.6545 17.2495 42.0964 17.0568 42.5491 17.0177C41.369 15.385 40.7222 13.4115 40.7222 11.3713C40.7222 8.81492 41.7377 6.36323 43.5454 4.55559ZM10.6389 56.7324C12.1344 56.7324 13.5687 56.1383 14.6262 55.0808C15.6837 54.0233 16.2778 52.5891 16.2778 51.0935C16.2778 49.598 15.6837 48.1637 14.6262 47.1062C13.5687 46.0487 12.1344 45.4546 10.6389 45.4546C9.14336 45.4546 7.70909 46.0487 6.65159 47.1062C5.5941 48.1637 5 49.598 5 51.0935C5 52.5891 5.5941 54.0233 6.65159 55.0808C7.70909 56.1383 9.14336 56.7324 10.6389 56.7324ZM50.3611 5.73242C48.8656 5.73242 47.4313 6.32652 46.3738 7.38401C45.3163 8.44151 44.7222 9.87578 44.7222 11.3713C44.7222 12.8668 45.3163 14.3011 46.3738 15.3586C47.4313 16.4161 48.8656 17.0102 50.3611 17.0102C51.8566 17.0102 53.2909 16.4161 54.3484 15.3586C55.4059 14.3011 56 12.8668 56 11.3713C56 9.87578 55.4059 8.44151 54.3484 7.38401C53.2909 6.32652 51.8566 5.73242 50.3611 5.73242ZM37.4343 38.1667C39.2419 36.3591 41.6936 35.3435 44.25 35.3435C46.8064 35.3435 49.2581 36.3591 51.0657 38.1667C52.8734 39.9743 53.8889 42.426 53.8889 44.9824C53.8889 47.5388 52.8734 49.9905 51.0657 51.7981C49.2581 53.6058 46.8064 54.6213 44.25 54.6213C42.2098 54.6213 40.2363 53.9745 38.6036 52.7944C38.5645 53.2472 38.3718 53.6891 38.0253 54.0355L31.9142 60.1466C31.1332 60.9277 29.8668 60.9277 29.0858 60.1466C28.3047 59.3656 28.3047 58.0993 29.0858 57.3182L35.1969 51.2071C35.5433 50.8606 35.9853 50.6679 36.438 50.6288C35.2579 48.9961 34.6111 47.0226 34.6111 44.9824C34.6111 42.426 35.6266 39.9743 37.4343 38.1667ZM44.25 50.6213C45.7455 50.6213 47.1798 50.0272 48.2373 48.9697C49.2948 47.9122 49.8889 46.4779 49.8889 44.9824C49.8889 43.4869 49.2948 42.0526 48.2373 40.9951C47.1798 39.9376 45.7455 39.3435 44.25 39.3435C42.7545 39.3435 41.3202 39.9376 40.2627 40.9951C39.2052 42.0526 38.6111 43.4869 38.6111 44.9824C38.6111 46.4779 39.2052 47.9122 40.2627 48.9697C41.3202 50.0272 42.7545 50.6213 44.25 50.6213Z" fill="#00B2FF"/>
</svg>
